<mxfile host="app.diagrams.net" modified="2023-05-26T15:30:53.272Z" agent="Mozilla/5.0 (Windows NT 10.0; Win64; x64) AppleWebKit/537.36 (KHTML, like Gecko) Chrome/113.0.0.0 Safari/537.36" etag="dYaKs35pefpNmoUy6zg_" version="21.3.2" type="device" pages="2">
  <diagram name="принципиальная" id="FmdA9DH_9ujzwkhzkqMF">
    <mxGraphModel dx="1154" dy="549" grid="1" gridSize="10" guides="1" tooltips="1" connect="1" arrows="1" fold="1" page="1" pageScale="1" pageWidth="827" pageHeight="1169" math="0" shadow="0">
      <root>
        <mxCell id="0" />
        <mxCell id="1" parent="0" />
        <mxCell id="AG3OH9gvHFaEAIxJg_-6-29" value="Бот" style="rounded=0;whiteSpace=wrap;html=1;fontSize=14;" vertex="1" parent="1">
          <mxGeometry x="320" y="80" width="120" height="60" as="geometry" />
        </mxCell>
        <mxCell id="AG3OH9gvHFaEAIxJg_-6-30" value="&lt;div&gt;Компонент&lt;/div&gt;" style="rounded=0;whiteSpace=wrap;html=1;fontSize=14;" vertex="1" parent="1">
          <mxGeometry x="320" y="200" width="120" height="60" as="geometry" />
        </mxCell>
        <mxCell id="AG3OH9gvHFaEAIxJg_-6-31" value="&lt;div&gt;Команда&lt;/div&gt;" style="rounded=0;whiteSpace=wrap;html=1;fontSize=14;" vertex="1" parent="1">
          <mxGeometry x="520" y="200" width="120" height="60" as="geometry" />
        </mxCell>
        <mxCell id="AG3OH9gvHFaEAIxJg_-6-32" value="&lt;div&gt;Пользователь&lt;/div&gt;" style="rounded=0;whiteSpace=wrap;html=1;fontSize=14;" vertex="1" parent="1">
          <mxGeometry x="120" y="200" width="120" height="60" as="geometry" />
        </mxCell>
        <mxCell id="AG3OH9gvHFaEAIxJg_-6-33" value="" style="edgeStyle=orthogonalEdgeStyle;fontSize=12;html=1;endArrow=ERoneToMany;startArrow=ERmandOne;rounded=0;exitX=0.5;exitY=1;exitDx=0;exitDy=0;entryX=0.5;entryY=0;entryDx=0;entryDy=0;endFill=0;" edge="1" parent="1" source="AG3OH9gvHFaEAIxJg_-6-29" target="AG3OH9gvHFaEAIxJg_-6-30">
          <mxGeometry width="100" height="100" relative="1" as="geometry">
            <mxPoint x="270" y="140" as="sourcePoint" />
            <mxPoint x="290" y="80" as="targetPoint" />
          </mxGeometry>
        </mxCell>
        <mxCell id="AG3OH9gvHFaEAIxJg_-6-35" style="edgeStyle=orthogonalEdgeStyle;rounded=0;orthogonalLoop=1;jettySize=auto;html=1;exitX=1;exitY=0.5;exitDx=0;exitDy=0;entryX=0;entryY=0.5;entryDx=0;entryDy=0;fontSize=14;startArrow=ERmandOne;startFill=0;endArrow=ERzeroToMany;endFill=0;" edge="1" parent="1" source="AG3OH9gvHFaEAIxJg_-6-30" target="AG3OH9gvHFaEAIxJg_-6-31">
          <mxGeometry relative="1" as="geometry">
            <mxPoint x="540" y="185" as="sourcePoint" />
            <mxPoint x="460" y="130" as="targetPoint" />
          </mxGeometry>
        </mxCell>
        <mxCell id="AG3OH9gvHFaEAIxJg_-6-36" value="" style="edgeStyle=orthogonalEdgeStyle;fontSize=12;html=1;endArrow=ERzeroToMany;startArrow=ERmandOne;rounded=0;exitX=0;exitY=0.5;exitDx=0;exitDy=0;entryX=0.5;entryY=0;entryDx=0;entryDy=0;" edge="1" parent="1" source="AG3OH9gvHFaEAIxJg_-6-29" target="AG3OH9gvHFaEAIxJg_-6-32">
          <mxGeometry width="100" height="100" relative="1" as="geometry">
            <mxPoint x="250" y="130" as="sourcePoint" />
            <mxPoint x="190" y="180" as="targetPoint" />
            <Array as="points">
              <mxPoint x="180" y="110" />
            </Array>
          </mxGeometry>
        </mxCell>
      </root>
    </mxGraphModel>
  </diagram>
  <diagram id="Vn4eUYYB9Sl7cbJFU8Ei" name="erd">
    <mxGraphModel dx="5580" dy="3822" grid="1" gridSize="10" guides="1" tooltips="1" connect="1" arrows="1" fold="1" page="1" pageScale="1" pageWidth="827" pageHeight="1169" math="0" shadow="0">
      <root>
        <mxCell id="0" />
        <mxCell id="1" parent="0" />
        <mxCell id="bFyoeJ4BOu0oAB35Qwf2-141" value="bot" style="swimlane;fontStyle=0;childLayout=stackLayout;horizontal=1;startSize=26;horizontalStack=0;resizeParent=1;resizeParentMax=0;resizeLast=0;collapsible=1;marginBottom=0;align=center;fontSize=14;" vertex="1" parent="1">
          <mxGeometry x="360" y="-1000" width="160" height="176" as="geometry" />
        </mxCell>
        <mxCell id="bFyoeJ4BOu0oAB35Qwf2-142" value="id bigint [PK]" style="text;strokeColor=none;fillColor=none;spacingLeft=4;spacingRight=4;overflow=hidden;rotatable=0;points=[[0,0.5],[1,0.5]];portConstraint=eastwest;fontSize=12;" vertex="1" parent="bFyoeJ4BOu0oAB35Qwf2-141">
          <mxGeometry y="26" width="160" height="30" as="geometry" />
        </mxCell>
        <mxCell id="bFyoeJ4BOu0oAB35Qwf2-143" value="user_id bigint" style="text;strokeColor=none;fillColor=none;spacingLeft=4;spacingRight=4;overflow=hidden;rotatable=0;points=[[0,0.5],[1,0.5]];portConstraint=eastwest;fontSize=12;" vertex="1" parent="bFyoeJ4BOu0oAB35Qwf2-141">
          <mxGeometry y="56" width="160" height="30" as="geometry" />
        </mxCell>
        <mxCell id="bFyoeJ4BOu0oAB35Qwf2-144" value="token character varying (20)" style="text;strokeColor=none;fillColor=none;spacingLeft=4;spacingRight=4;overflow=hidden;rotatable=0;points=[[0,0.5],[1,0.5]];portConstraint=eastwest;fontSize=12;" vertex="1" parent="bFyoeJ4BOu0oAB35Qwf2-141">
          <mxGeometry y="86" width="160" height="30" as="geometry" />
        </mxCell>
        <mxCell id="bFyoeJ4BOu0oAB35Qwf2-145" value="title character varying (20)" style="text;strokeColor=none;fillColor=none;spacingLeft=4;spacingRight=4;overflow=hidden;rotatable=0;points=[[0,0.5],[1,0.5]];portConstraint=eastwest;fontSize=12;" vertex="1" parent="bFyoeJ4BOu0oAB35Qwf2-141">
          <mxGeometry y="116" width="160" height="30" as="geometry" />
        </mxCell>
        <mxCell id="bFyoeJ4BOu0oAB35Qwf2-147" value="status integer" style="text;strokeColor=none;fillColor=none;spacingLeft=4;spacingRight=4;overflow=hidden;rotatable=0;points=[[0,0.5],[1,0.5]];portConstraint=eastwest;fontSize=12;" vertex="1" parent="bFyoeJ4BOu0oAB35Qwf2-141">
          <mxGeometry y="146" width="160" height="30" as="geometry" />
        </mxCell>
        <mxCell id="nw6Y3iwOCWOYWshU9MsH-1" value="component" style="swimlane;fontStyle=0;childLayout=stackLayout;horizontal=1;startSize=26;horizontalStack=0;resizeParent=1;resizeParentMax=0;resizeLast=0;collapsible=1;marginBottom=0;align=center;fontSize=14;" vertex="1" parent="1">
          <mxGeometry x="600" y="-800" width="160" height="266" as="geometry">
            <mxRectangle x="360" y="200" width="90" height="30" as="alternateBounds" />
          </mxGeometry>
        </mxCell>
        <mxCell id="nw6Y3iwOCWOYWshU9MsH-2" value="id bigint [PK]" style="text;strokeColor=none;fillColor=none;spacingLeft=4;spacingRight=4;overflow=hidden;rotatable=0;points=[[0,0.5],[1,0.5]];portConstraint=eastwest;fontSize=12;" vertex="1" parent="nw6Y3iwOCWOYWshU9MsH-1">
          <mxGeometry y="26" width="160" height="30" as="geometry" />
        </mxCell>
        <mxCell id="3a09zudo0ivTmC17q7wg-1" value="bot_id bigint [FK]" style="text;strokeColor=none;fillColor=none;spacingLeft=4;spacingRight=4;overflow=hidden;rotatable=0;points=[[0,0.5],[1,0.5]];portConstraint=eastwest;fontSize=12;" vertex="1" parent="nw6Y3iwOCWOYWshU9MsH-1">
          <mxGeometry y="56" width="160" height="30" as="geometry" />
        </mxCell>
        <mxCell id="nw6Y3iwOCWOYWshU9MsH-3" value="data jsonb" style="text;strokeColor=none;fillColor=none;spacingLeft=4;spacingRight=4;overflow=hidden;rotatable=0;points=[[0,0.5],[1,0.5]];portConstraint=eastwest;fontSize=12;" vertex="1" parent="nw6Y3iwOCWOYWshU9MsH-1">
          <mxGeometry y="86" width="160" height="30" as="geometry" />
        </mxCell>
        <mxCell id="nw6Y3iwOCWOYWshU9MsH-5" value="keyboard jsonb" style="text;strokeColor=none;fillColor=none;spacingLeft=4;spacingRight=4;overflow=hidden;rotatable=0;points=[[0,0.5],[1,0.5]];portConstraint=eastwest;fontSize=12;" vertex="1" parent="nw6Y3iwOCWOYWshU9MsH-1">
          <mxGeometry y="116" width="160" height="30" as="geometry" />
        </mxCell>
        <mxCell id="nw6Y3iwOCWOYWshU9MsH-6" value="next_step_id biging" style="text;strokeColor=none;fillColor=none;spacingLeft=4;spacingRight=4;overflow=hidden;rotatable=0;points=[[0,0.5],[1,0.5]];portConstraint=eastwest;fontSize=12;" vertex="1" parent="nw6Y3iwOCWOYWshU9MsH-1">
          <mxGeometry y="146" width="160" height="30" as="geometry" />
        </mxCell>
        <mxCell id="nw6Y3iwOCWOYWshU9MsH-7" value="is_main boolean" style="text;strokeColor=none;fillColor=none;spacingLeft=4;spacingRight=4;overflow=hidden;rotatable=0;points=[[0,0.5],[1,0.5]];portConstraint=eastwest;fontSize=12;" vertex="1" parent="nw6Y3iwOCWOYWshU9MsH-1">
          <mxGeometry y="176" width="160" height="30" as="geometry" />
        </mxCell>
        <mxCell id="nw6Y3iwOCWOYWshU9MsH-8" value="position point" style="text;strokeColor=none;fillColor=none;spacingLeft=4;spacingRight=4;overflow=hidden;rotatable=0;points=[[0,0.5],[1,0.5]];portConstraint=eastwest;fontSize=12;" vertex="1" parent="nw6Y3iwOCWOYWshU9MsH-1">
          <mxGeometry y="206" width="160" height="30" as="geometry" />
        </mxCell>
        <mxCell id="nw6Y3iwOCWOYWshU9MsH-4" value="status integer" style="text;strokeColor=none;fillColor=none;spacingLeft=4;spacingRight=4;overflow=hidden;rotatable=0;points=[[0,0.5],[1,0.5]];portConstraint=eastwest;fontSize=12;" vertex="1" parent="nw6Y3iwOCWOYWshU9MsH-1">
          <mxGeometry y="236" width="160" height="30" as="geometry" />
        </mxCell>
        <mxCell id="TsSNTwxUUX6MjMXw4fSZ-1" value="" style="edgeStyle=orthogonalEdgeStyle;fontSize=12;html=1;endArrow=ERoneToMany;startArrow=ERmandOne;rounded=0;endFill=0;exitX=1;exitY=0.5;exitDx=0;exitDy=0;entryX=0;entryY=0.5;entryDx=0;entryDy=0;" edge="1" parent="1" source="bFyoeJ4BOu0oAB35Qwf2-142" target="3a09zudo0ivTmC17q7wg-1">
          <mxGeometry width="100" height="100" relative="1" as="geometry">
            <mxPoint x="600" y="-930" as="sourcePoint" />
            <mxPoint x="490" y="-563" as="targetPoint" />
            <Array as="points">
              <mxPoint x="570" y="-959" />
              <mxPoint x="570" y="-729" />
            </Array>
          </mxGeometry>
        </mxCell>
        <mxCell id="TsSNTwxUUX6MjMXw4fSZ-2" value="user" style="swimlane;fontStyle=0;childLayout=stackLayout;horizontal=1;startSize=26;horizontalStack=0;resizeParent=1;resizeParentMax=0;resizeLast=0;collapsible=1;marginBottom=0;align=center;fontSize=14;" vertex="1" parent="1">
          <mxGeometry x="130" y="-810" width="160" height="266" as="geometry" />
        </mxCell>
        <mxCell id="TsSNTwxUUX6MjMXw4fSZ-3" value="id bigint [PK]" style="text;strokeColor=none;fillColor=none;spacingLeft=4;spacingRight=4;overflow=hidden;rotatable=0;points=[[0,0.5],[1,0.5]];portConstraint=eastwest;fontSize=12;" vertex="1" parent="TsSNTwxUUX6MjMXw4fSZ-2">
          <mxGeometry y="26" width="160" height="30" as="geometry" />
        </mxCell>
        <mxCell id="TsSNTwxUUX6MjMXw4fSZ-8" value="bot_id bigint [FK]" style="text;strokeColor=none;fillColor=none;spacingLeft=4;spacingRight=4;overflow=hidden;rotatable=0;points=[[0,0.5],[1,0.5]];portConstraint=eastwest;fontSize=12;" vertex="1" parent="TsSNTwxUUX6MjMXw4fSZ-2">
          <mxGeometry y="56" width="160" height="30" as="geometry" />
        </mxCell>
        <mxCell id="TsSNTwxUUX6MjMXw4fSZ-4" value="tg_id bigint" style="text;strokeColor=none;fillColor=none;spacingLeft=4;spacingRight=4;overflow=hidden;rotatable=0;points=[[0,0.5],[1,0.5]];portConstraint=eastwest;fontSize=12;" vertex="1" parent="TsSNTwxUUX6MjMXw4fSZ-2">
          <mxGeometry y="86" width="160" height="30" as="geometry" />
        </mxCell>
        <mxCell id="TsSNTwxUUX6MjMXw4fSZ-5" value="first_name text" style="text;strokeColor=none;fillColor=none;spacingLeft=4;spacingRight=4;overflow=hidden;rotatable=0;points=[[0,0.5],[1,0.5]];portConstraint=eastwest;fontSize=12;" vertex="1" parent="TsSNTwxUUX6MjMXw4fSZ-2">
          <mxGeometry y="116" width="160" height="30" as="geometry" />
        </mxCell>
        <mxCell id="TsSNTwxUUX6MjMXw4fSZ-6" value="last_name text" style="text;strokeColor=none;fillColor=none;spacingLeft=4;spacingRight=4;overflow=hidden;rotatable=0;points=[[0,0.5],[1,0.5]];portConstraint=eastwest;fontSize=12;" vertex="1" parent="TsSNTwxUUX6MjMXw4fSZ-2">
          <mxGeometry y="146" width="160" height="30" as="geometry" />
        </mxCell>
        <mxCell id="TsSNTwxUUX6MjMXw4fSZ-21" value="username text" style="text;strokeColor=none;fillColor=none;spacingLeft=4;spacingRight=4;overflow=hidden;rotatable=0;points=[[0,0.5],[1,0.5]];portConstraint=eastwest;fontSize=12;" vertex="1" parent="TsSNTwxUUX6MjMXw4fSZ-2">
          <mxGeometry y="176" width="160" height="30" as="geometry" />
        </mxCell>
        <mxCell id="TsSNTwxUUX6MjMXw4fSZ-22" value="step_id bigint" style="text;strokeColor=none;fillColor=none;spacingLeft=4;spacingRight=4;overflow=hidden;rotatable=0;points=[[0,0.5],[1,0.5]];portConstraint=eastwest;fontSize=12;" vertex="1" parent="TsSNTwxUUX6MjMXw4fSZ-2">
          <mxGeometry y="206" width="160" height="30" as="geometry" />
        </mxCell>
        <mxCell id="TsSNTwxUUX6MjMXw4fSZ-7" value="status integer" style="text;strokeColor=none;fillColor=none;spacingLeft=4;spacingRight=4;overflow=hidden;rotatable=0;points=[[0,0.5],[1,0.5]];portConstraint=eastwest;fontSize=12;" vertex="1" parent="TsSNTwxUUX6MjMXw4fSZ-2">
          <mxGeometry y="236" width="160" height="30" as="geometry" />
        </mxCell>
        <mxCell id="TsSNTwxUUX6MjMXw4fSZ-9" value="" style="edgeStyle=orthogonalEdgeStyle;fontSize=12;html=1;endArrow=ERzeroToMany;startArrow=ERmandOne;rounded=0;endFill=0;entryX=1;entryY=0.5;entryDx=0;entryDy=0;exitX=0;exitY=0.5;exitDx=0;exitDy=0;" edge="1" parent="1" source="bFyoeJ4BOu0oAB35Qwf2-142" target="TsSNTwxUUX6MjMXw4fSZ-8">
          <mxGeometry width="100" height="100" relative="1" as="geometry">
            <mxPoint x="330" y="-949.48" as="sourcePoint" />
            <mxPoint x="260" y="-874.48" as="targetPoint" />
            <Array as="points">
              <mxPoint x="320" y="-959" />
              <mxPoint x="320" y="-739" />
            </Array>
          </mxGeometry>
        </mxCell>
        <mxCell id="TsSNTwxUUX6MjMXw4fSZ-10" value="command" style="swimlane;fontStyle=0;childLayout=stackLayout;horizontal=1;startSize=26;horizontalStack=0;resizeParent=1;resizeParentMax=0;resizeLast=0;collapsible=1;marginBottom=0;align=center;fontSize=14;" vertex="1" parent="1">
          <mxGeometry x="840" y="-800" width="160" height="206" as="geometry">
            <mxRectangle x="360" y="200" width="90" height="30" as="alternateBounds" />
          </mxGeometry>
        </mxCell>
        <mxCell id="TsSNTwxUUX6MjMXw4fSZ-11" value="id bigint [PK]" style="text;strokeColor=none;fillColor=none;spacingLeft=4;spacingRight=4;overflow=hidden;rotatable=0;points=[[0,0.5],[1,0.5]];portConstraint=eastwest;fontSize=12;" vertex="1" parent="TsSNTwxUUX6MjMXw4fSZ-10">
          <mxGeometry y="26" width="160" height="30" as="geometry" />
        </mxCell>
        <mxCell id="TsSNTwxUUX6MjMXw4fSZ-12" value="component_id bigint [FK]" style="text;strokeColor=none;fillColor=none;spacingLeft=4;spacingRight=4;overflow=hidden;rotatable=0;points=[[0,0.5],[1,0.5]];portConstraint=eastwest;fontSize=12;" vertex="1" parent="TsSNTwxUUX6MjMXw4fSZ-10">
          <mxGeometry y="56" width="160" height="30" as="geometry" />
        </mxCell>
        <mxCell id="TsSNTwxUUX6MjMXw4fSZ-13" value="type character varying (20)" style="text;strokeColor=none;fillColor=none;spacingLeft=4;spacingRight=4;overflow=hidden;rotatable=0;points=[[0,0.5],[1,0.5]];portConstraint=eastwest;fontSize=12;" vertex="1" parent="TsSNTwxUUX6MjMXw4fSZ-10">
          <mxGeometry y="86" width="160" height="30" as="geometry" />
        </mxCell>
        <mxCell id="TsSNTwxUUX6MjMXw4fSZ-14" value="data text" style="text;strokeColor=none;fillColor=none;spacingLeft=4;spacingRight=4;overflow=hidden;rotatable=0;points=[[0,0.5],[1,0.5]];portConstraint=eastwest;fontSize=12;" vertex="1" parent="TsSNTwxUUX6MjMXw4fSZ-10">
          <mxGeometry y="116" width="160" height="30" as="geometry" />
        </mxCell>
        <mxCell id="TsSNTwxUUX6MjMXw4fSZ-15" value="next_step_id biging" style="text;strokeColor=none;fillColor=none;spacingLeft=4;spacingRight=4;overflow=hidden;rotatable=0;points=[[0,0.5],[1,0.5]];portConstraint=eastwest;fontSize=12;" vertex="1" parent="TsSNTwxUUX6MjMXw4fSZ-10">
          <mxGeometry y="146" width="160" height="30" as="geometry" />
        </mxCell>
        <mxCell id="TsSNTwxUUX6MjMXw4fSZ-18" value="status integer" style="text;strokeColor=none;fillColor=none;spacingLeft=4;spacingRight=4;overflow=hidden;rotatable=0;points=[[0,0.5],[1,0.5]];portConstraint=eastwest;fontSize=12;" vertex="1" parent="TsSNTwxUUX6MjMXw4fSZ-10">
          <mxGeometry y="176" width="160" height="30" as="geometry" />
        </mxCell>
        <mxCell id="TsSNTwxUUX6MjMXw4fSZ-20" value="" style="edgeStyle=orthogonalEdgeStyle;fontSize=12;html=1;endArrow=ERzeroToMany;startArrow=ERmandOne;rounded=0;endFill=0;entryX=0;entryY=0.5;entryDx=0;entryDy=0;exitX=1;exitY=0.445;exitDx=0;exitDy=0;exitPerimeter=0;" edge="1" parent="1" source="nw6Y3iwOCWOYWshU9MsH-2" target="TsSNTwxUUX6MjMXw4fSZ-12">
          <mxGeometry width="100" height="100" relative="1" as="geometry">
            <mxPoint x="840" y="-1110" as="sourcePoint" />
            <mxPoint x="770" y="-890" as="targetPoint" />
            <Array as="points">
              <mxPoint x="800" y="-761" />
              <mxPoint x="800" y="-729" />
            </Array>
          </mxGeometry>
        </mxCell>
      </root>
    </mxGraphModel>
  </diagram>
</mxfile>
